<?xml version="1.0" standalone="no"?><!DOCTYPE svg PUBLIC "-//W3C//DTD SVG 1.1//EN" "http://www.w3.org/Graphics/SVG/1.1/DTD/svg11.dtd"><svg t="1644314111566" class="icon" viewBox="0 0 1024 1024" version="1.1" xmlns="http://www.w3.org/2000/svg" p-id="2907" width="200" height="200" xmlns:xlink="http://www.w3.org/1999/xlink"><defs><style type="text/css"></style></defs><path d="M949.6 667.1c-1.3-4.3-27.7-87.1-87.9-142.8 9.2-8.4 18-17.9 26.2-28.5 14.7-19 27.6-41.6 38.4-67.1 18-42.5 24.2-79.3 24.5-80.8l4.1-24.9-22.4-11.8c-3.9-2.1-81.2-42-163.2-38.9 0.6-12.5 0.1-25.4-1.6-38.6-3.1-23.8-9.9-48.9-20.3-74.6-17.3-42.8-38.9-73.2-39.8-74.5L692.9 64l-24.1 7.5c-4.3 1.3-87.1 27.7-142.8 87.9-8.4-9.2-17.9-18-28.5-26.2-19-14.7-41.6-27.6-67.1-38.4-42.5-18-79.3-24.2-80.8-24.5l-24.9-4.1-11.8 22.4c-2.1 3.9-42 81.2-38.9 163.2-12.5-0.6-25.4-0.1-38.6 1.6-23.8 3.1-48.9 9.9-74.6 20.3-42.8 17.3-73.2 38.9-74.5 39.8l-20.6 14.7 7.5 24.1c1.3 4.3 27.7 87.1 87.9 142.8-9.2 8.4-18 17.9-26.2 28.5-14.7 19-27.6 41.6-38.4 67.1-18 42.5-24.2 79.3-24.5 80.8l-4.1 24.9 22.4 11.8c3.8 2 75.4 39 153.9 39 3.1 0 6.2-0.1 9.3-0.2-0.6 12.5-0.1 25.4 1.6 38.6 3.1 23.8 9.9 48.9 20.3 74.6 17.3 42.8 38.9 73.2 39.8 74.5l14.7 20.6 24.1-7.5c4.3-1.3 87.1-27.7 142.8-87.9 8.4 9.2 17.9 18 28.5 26.2 19 14.7 41.6 27.6 67.1 38.4 42.5 18 79.3 24.2 80.8 24.5l24.9 4.1 11.8-22.4c2.1-3.9 42-81.2 38.9-163.2 3.3 0.2 6.6 0.2 9.9 0.2 9.4 0 18.9-0.6 28.7-1.9 23.8-3.1 48.9-9.9 74.6-20.3 42.8-17.3 73.2-38.9 74.5-39.8l20.6-14.7-7.5-23.9zM751.4 344.5c44.9-8.4 95 6.7 124.1 18-10.5 36.7-35.5 102.1-85.6 127-1.4 0.7-2.9 1.4-4.4 2.1h-0.1c-25.3 12-51.7 19.3-76.1 21.4v-0.1c0.1-1.6 0.2-3.1 0.2-4.7v-1.1c0-1.6 0.1-3.1 0.1-4.7v-0.9c0-24.7-4.7-49.1-13.7-71.8 22.4-22.9 41.4-52.2 55.5-85.2zM639.6 505.4v1.3c0 1.1-0.1 2.1-0.2 3.2 0 0.4 0 0.8-0.1 1.2-0.1 1.2-0.2 2.3-0.3 3.5 0 0.3-0.1 0.6-0.1 0.9-0.1 1.3-0.3 2.6-0.5 3.9 0 0.1 0 0.3-0.1 0.4-0.8 5.8-2.1 11.5-3.7 17.1-6 20.3-17.2 39-32.4 54-1.1 1-2.2 2.1-3.3 3.1-7.2 6.6-15.1 12.3-23.5 17-17.8 9.9-38.1 15.4-58.6 15.7h-4.3c-2.7 0-5.3-0.2-8-0.4h-0.1c-0.2 0-0.5 0-0.7-0.1-6.5-0.6-12.9-1.6-19.2-3.1-19.6-4.8-37.9-14.5-53.1-28.1-8.1-7.2-15.2-15.4-21.2-24.5-11.3-17.1-18.3-37-20.1-57.4-0.3-3.8-0.5-7.6-0.5-11.4 0-2 0.1-4 0.1-6 0.2-4.5 0.7-9.1 1.4-13.5 0.1-0.9 0.3-1.8 0.5-2.7 3.8-20.9 13-40.7 26.6-57.2 1.2-1.4 2.4-2.8 3.7-4.2 6.6-7.3 14.1-13.9 22.3-19.5 18.3-12.5 39.7-20 61.8-21.5 3-0.2 5.9-0.3 8.7-0.3 9.2 0 18.3 1 27.2 3 22 4.9 42.3 15.7 58.8 31.3 1.1 1 2.2 2.1 3.2 3.2 1.2 1.2 2.3 2.4 3.5 3.7 5.9 6.5 11.2 13.7 15.6 21.3 11 18.9 16.8 40.6 16.8 62.6v0.6c-0.2 0.8-0.2 1.9-0.2 2.9z m25-357.2c18.6 33.5 47.2 97.6 29.5 150.2-0.5 1.6-1.1 3.2-1.7 4.9-8.7 24.4-21.1 46.9-35.5 65-0.7-0.8-1.4-1.5-2.2-2.2l-1.4-1.4c-1.5-1.5-3.1-3.1-4.6-4.5-18.4-17.5-40-31.1-63.4-40.2-0.9-31.3-8.1-64.4-21.1-96.7 25.7-37.7 71.8-62.5 100.4-75.1z m-300.5-2.4c36.8 10.4 102.2 35.4 127.1 85.5 0.7 1.4 1.4 2.9 2.1 4.4v0.1c11 23.3 18.2 47.9 20.9 70.9-1.3 0-2.6 0-3.9 0.1h-2.4c-1.6 0.1-3.2 0.1-4.8 0.2-0.6 0-1.2 0.1-1.8 0.1h-0.1c-24.2 1.6-47.9 7.8-69.7 18.1-23-22.4-52.3-41.4-85.4-55.5-8.4-44.7 6.6-94.9 18-123.9zM149.8 356.6C183.2 338 247 309.4 300 327.2c1.6 0.5 3.2 1.1 4.9 1.7 26.1 9.3 49.8 22.7 68.6 38.3 0 0 0 0.1-0.1 0.1-1 1-1.9 2-2.8 3.1-0.6 0.7-1.2 1.3-1.9 2-1.2 1.3-2.3 2.6-3.4 4-0.4 0.4-0.7 0.9-1.1 1.3-14.3 17.4-25.5 37.1-33.1 58.2-34-0.5-70.4 6.7-106.3 21.2-37.7-25.9-62.5-72-75-100.5z m121.6 318.5c-44.9 8.4-95-6.7-124.1-18 10.4-36.8 35.4-102.2 85.5-127.1 1.4-0.7 2.9-1.4 4.4-2.1l0.1-0.1c27.6-13 56.2-20.6 82.2-21.9v0.6c0 1.2 0.1 2.3 0.1 3.5 0 0.4 0 0.8 0.1 1.3 0 1 0.1 1.9 0.2 2.9 0 0.4 0.1 0.8 0.1 1.2 0.1 1.3 0.2 2.6 0.3 3.8v0.1c1.9 21.1 7.3 41.8 15.9 61.2-26.2 24.2-48.7 57-64.8 94.6z m86.8 196.3c-18.6-33.4-47.2-97.2-29.4-150.2 0.5-1.6 1.1-3.2 1.7-4.9 10.8-30.2 27.1-57.3 45.9-77.1 1 1 2 1.9 3 2.9l1 1c1.5 1.4 3 2.8 4.5 4.1 15.7 14 33.6 25.3 52.8 33.6-2 36.3 5.2 76.5 20.8 115.4-25.6 37.9-71.8 62.7-100.3 75.2z m300.6 2.4c-36.8-10.6-102.4-35.7-127.1-85.5-0.7-1.4-1.4-2.9-2.1-4.4v-0.1c-13.8-29.1-21.4-59.9-22-87.2 1.2 0 2.3 0.1 3.5 0.1h6.9c22-0.3 43.8-4.4 64.3-12 24.2 26.3 57.1 49 94.7 65 8.1 44.9-6.9 95-18.2 124.1z m64-181.3c-1.6-0.5-3.2-1.1-4.9-1.7-29.1-10.4-54.7-25.4-74-43 0.6-0.5 1.2-1.1 1.8-1.6 0.4-0.4 0.9-0.8 1.3-1.2 1.5-1.3 2.9-2.7 4.3-4.1 16.8-16.5 30.4-35.9 40.3-57h3.5c33 0 68.3-7.3 103-21.2 37.6 25.7 62.4 71.8 75 100.3-33.6 18.5-97.8 47.1-150.3 29.5z" p-id="2908" fill="#ea9518"></path><path d="M571.4 448.6c10.4-8.8 9.2-25.2-2.4-32.3-4.8-2.9-9.5-5.1-14.2-6.6-0.4-0.1-0.7-0.2-1.1-0.3-18.3-5.1-31.2 18.1-17.6 31.3 3.5 3.4 7.9 7.3 11.8 9.6 7.5 4.4 16.9 3.9 23.5-1.7zM609.5 474.7c-6.3-13.1-23.9-15.4-33.3-4.3l-0.1 0.1c-5 5.9-6.3 14.3-2.9 21.3 2 4.1 3.7 9.4 4 15.7 0.8 15.1-6.5 32.5-21.2 50.9-6.4 8-5.6 19.6 1.8 26.7 8.5 8.2 22.2 7.3 29.6-2 21-26.3 31-52.4 29.7-77.7-0.4-12.2-3.6-22.5-7.6-30.7z" p-id="2909" fill="#ea9518"></path></svg>